<svg width="11" height="11" xmlns="http://www.w3.org/2000/svg">
 <defs>
  <clipPath id="clip0">
   <rect id="svg_1" x="28.875" y="0" fill="white" height="11" width="11"/>
  </clipPath>
  <clipPath id="clip1">
   <rect id="svg_2" x="57.75" y="0" fill="white" height="11" width="11"/>
  </clipPath>
  <clipPath id="clip2">
   <rect id="svg_3" x="14.4375" y="0" fill="white" height="11" width="11"/>
  </clipPath>
  <clipPath id="clip3">
   <rect id="svg_4" x="43.3125" y="0" fill="white" height="11" width="11"/>
  </clipPath>
  <clipPath id="clip4">
   <rect id="svg_5" fill="white" height="11" width="11"/>
  </clipPath>
 </defs>
 <g>
  <title>background</title>
  <rect fill="none" id="canvas_background" height="13" width="13" y="-1" x="-1"/>
 </g>
 <g>
  <title>Layer 1</title>
  <g id="svg_14" clip-path="url(#clip4)">
   <path id="svg_15" fill="black" d="m2.46203,10.7774c-0.12051,0 -0.24019,-0.0376 -0.34233,-0.1115c-0.19026,-0.1379 -0.27913,-0.3749 -0.22735,-0.6036l0.70766,-3.11721l-2.39994,-2.10468c-0.17641,-0.154 -0.2438,-0.39789 -0.17137,-0.62105c0.07243,-0.22274 0.26948,-0.38043 0.5028,-0.402l3.1754,-0.28828l1.25544,-2.93798c0.09257,-0.21586 0.30339,-0.35526 0.53763,-0.35526c0.23423,0 0.44506,0.1394 0.53763,0.35475l1.25544,2.93849l3.17486,0.28828c0.2339,0.02106 0.4309,0.17926 0.5033,0.402c0.0725,0.22274 0.0055,0.46705 -0.1709,0.62105l-2.39995,2.10426l0.70766,3.11713c0.05187,0.2292 -0.0371,0.4662 -0.22727,0.6037c-0.18976,0.1375 -0.44279,0.1481 -0.64262,0.028l-2.73815,-1.63634l-2.73815,1.63724c-0.09257,0.055 -0.19572,0.083 -0.29979,0.083l0,0zm3.03794,-2.42513c0.10407,0 0.20713,0.02795 0.29978,0.08292l2.58415,1.54557l-0.66788,-2.94217c-0.04767,-0.2094 0.02342,-0.42802 0.18522,-0.56969l2.26606,-1.98735l-2.99805,-0.27226c-0.21586,-0.01972 -0.4015,-0.15543 -0.48585,-0.35433l-1.18343,-2.77256l-1.18486,2.77298c-0.08342,0.19756 -0.26907,0.33327 -0.48442,0.35299l-2.99849,0.27225l2.26599,1.98736c0.16231,0.14208 0.23331,0.36029 0.18522,0.57019l-0.66737,2.94209l2.58415,-1.54507c0.09257,-0.05497 0.19571,-0.08292 0.29978,-0.08292l0,0zm-1.81732,-4.76638c0,0 0,0.00051 -0.00051,0.00093l0.00051,-0.00093zm3.63372,-0.00134l0.0005,0.00092c0,-0.0005 0,-0.0005 -0.0005,-0.00092z" opacity="0.4"/>
  </g>
 </g>
</svg>