<svg width="11" height="11" xmlns="http://www.w3.org/2000/svg">
 <defs>
  <clipPath id="clip0">
   <rect id="svg_1" fill="white" height="11" width="11"/>
  </clipPath>
  <clipPath id="clip1">
   <rect id="svg_2" x="28.875" y="0" fill="white" height="11" width="11"/>
  </clipPath>
  <clipPath id="clip2">
   <rect id="svg_3" x="28.875" y="0" fill="white" height="11" width="11"/>
  </clipPath>
  <clipPath id="clip3">
   <rect id="svg_4" x="57.75" y="0" fill="white" height="11" width="11"/>
  </clipPath>
  <clipPath id="clip4">
   <rect id="svg_5" x="14.4375" y="0" fill="white" height="11" width="11"/>
  </clipPath>
  <clipPath id="clip5">
   <rect id="svg_6" x="14.4375" y="0" fill="white" height="11" width="11"/>
  </clipPath>
  <clipPath id="clip6">
   <rect id="svg_7" x="43.3125" y="0" fill="white" height="11" width="11"/>
  </clipPath>
 </defs>
 <g>
  <title>background</title>
  <rect fill="none" id="canvas_background" height="13" width="13" y="-1" x="-1"/>
 </g>
 <g>
  <title>Layer 1</title>
  <g id="svg_8" clip-path="url(#clip0)">
   <path id="svg_9" fill="#4EE8C4" d="m2.46203,10.7774c-0.12051,0 -0.24019,-0.0376 -0.34233,-0.1115c-0.19026,-0.1379 -0.27913,-0.3749 -0.22735,-0.6036l0.70766,-3.1172l-2.39994,-2.10469c-0.17641,-0.154 -0.2438,-0.39789 -0.17137,-0.62105c0.07243,-0.22274 0.26948,-0.38043 0.5028,-0.402l3.1754,-0.28828l1.25544,-2.93798c0.09257,-0.21586 0.30339,-0.35526 0.53763,-0.35526c0.23424,0 0.44506,0.1394 0.53763,0.35475l1.25544,2.93849l3.17486,0.28828c0.2339,0.02107 0.4309,0.17926 0.5033,0.402c0.0725,0.22274 0.0055,0.46705 -0.1709,0.62105l-2.39995,2.10427l0.70766,3.11712c0.05187,0.2292 -0.03709,0.4662 -0.22727,0.6037c-0.18976,0.1375 -0.44279,0.1481 -0.64262,0.028l-2.73815,-1.63634l-2.73815,1.63724c-0.09257,0.055 -0.19572,0.083 -0.29979,0.083z"/>
  </g>
 </g>
</svg>