<svg width="32" height="32" viewBox="0 0 32 32" fill="none" xmlns="http://www.w3.org/2000/svg">
<path d="M24.8047 12.094C24.5182 10.6986 23.229 9.75665 21.8323 9.79154L20.8654 5.11682C20.7222 4.34933 19.9702 3.86093 19.1823 4.03536L18.5735 4.14001C18.3587 4.1749 18.1796 4.34933 18.0364 4.55864C17.2843 5.64011 16.2458 6.54714 15.064 7.20998C12.3424 8.77984 8.29573 11.2219 8.29573 11.2219C7.07815 11.9894 5.6457 12.3731 4.17744 12.3033C2.20783 12.2336 0.667952 13.8732 1.06187 15.757L1.4558 17.6758C1.81391 19.3154 3.53284 20.2573 5.10853 19.6991L8.04505 26.0135C8.43897 26.8508 9.4775 27.2345 10.337 26.8508C11.1964 26.467 11.5904 25.4553 11.1964 24.6181L8.61803 19.0014C9.33425 18.9665 10.0505 19.0363 10.7667 19.1759C10.7667 19.1759 14.7775 19.8387 17.6424 20.2224C19.0749 20.4318 20.3999 20.9899 21.6175 21.7225C21.8323 21.8272 22.0114 21.897 22.2263 21.8621L22.8351 21.7574C23.6229 21.6179 24.1243 20.8853 23.9452 20.1178L22.9783 15.3733C24.2675 14.85 25.0912 13.4894 24.8047 12.094Z" fill="#6ADF46"/>
<path d="M25.1628 9.79137C25.0553 9.79137 24.9479 9.7216 24.8763 9.65183C24.7689 9.4774 24.8047 9.26808 24.9837 9.16342L28.3142 6.96561C28.4932 6.86095 28.7081 6.89584 28.8155 7.07027C28.9229 7.2447 28.8871 7.45401 28.7081 7.55867L25.3776 9.7216C25.306 9.75648 25.2344 9.79137 25.1628 9.79137Z" fill="#6ADF46"/>
<path d="M26.452 11.7102C26.3088 11.7102 26.1655 11.6056 26.0939 11.466C26.0581 11.2916 26.1655 11.0823 26.3446 11.0474L30.2122 10.0008C30.3912 9.96594 30.6061 10.0706 30.6419 10.245C30.6777 10.4195 30.5703 10.6288 30.3912 10.6637L26.5236 11.7102C26.5236 11.7102 26.4878 11.7102 26.452 11.7102Z" fill="#6ADF46"/>
<path d="M30.6419 13.6992H26.6311C26.4162 13.6992 26.2729 13.5596 26.2729 13.3503C26.2729 13.141 26.4162 13.0015 26.6311 13.0015H30.6419C30.8568 13.0015 31 13.141 31 13.3503C31 13.5596 30.821 13.6992 30.6419 13.6992Z" fill="#6ADF46"/>
</svg>
