<svg width="32" height="32" viewBox="0 0 32 32" fill="none" xmlns="http://www.w3.org/2000/svg">
<path d="M7.22535 10.3779H4.70188C3.76291 10.3779 3 11.1189 3 12.0308V22.8028C3 23.7147 3.76291 24.4556 4.70188 24.4556H7.22535C8.16432 24.4556 8.92723 23.7147 8.92723 22.8028V12.0308C8.92723 11.1189 8.16432 10.3779 7.22535 10.3779Z" fill="#6ADF46"/>
<path d="M26.8263 18.6992C27.5305 18.4713 28.0587 17.8443 28.0587 17.0464C28.0587 16.0775 27.2371 15.2795 26.2395 15.2795C26.5916 14.9376 26.8263 14.4816 26.8263 14.0257C26.8263 13.0567 26.0047 12.2588 25.0071 12.2588C25.0071 12.2588 21.5446 12.2018 20.9578 12.1448C20.2535 13.9687 19.0798 16.5334 17.0845 17.6163C17.0258 17.6163 16.9672 17.6733 16.9672 17.6733C16.8498 17.6733 16.7911 17.6163 16.7324 17.5023C16.6737 17.3884 16.7324 17.2174 16.8498 17.1034C18.6103 16.1915 19.7254 13.7977 20.4296 12.0878H20.3709C20.8404 10.093 20.723 6.61634 19.0211 4.33654C17.8474 2.96867 14.7371 2.11374 15.2653 4.50753C16.615 10.834 13.0352 12.5438 9.98358 12.8858V22.1759H10.101C10.3357 23.7718 11.7441 24.9687 13.446 24.9687L22.0728 25.0257H22.1315H22.9531H23.0704H25.1244C26.1221 25.0257 26.9437 24.2277 26.9437 23.2588C26.9437 22.6319 26.5916 22.0619 26.0634 21.777C26.885 21.606 27.5305 20.922 27.5305 20.0671C27.5305 19.4972 27.2371 19.0412 26.8263 18.6992Z" fill="#6ADF46"/>
</svg>
