<svg width="32" height="32" viewBox="0 0 32 32" fill="none" xmlns="http://www.w3.org/2000/svg">
<path d="M21.7767 4H9.22334C7.99195 4 7 5.02353 7 6.29412V25.7412C7 26.9765 7.99195 28 9.22334 28H21.7767C23.008 28 24 26.9765 24 25.7059V6.29412C24 5.02353 23.008 4 21.7767 4ZM19.2455 19C19.2455 19.3176 19.006 19.5294 18.7324 19.5294H9.36016C9.05231 19.5294 8.84708 19.2824 8.84708 19V18.8235C8.84708 18.5059 9.08652 18.2941 9.36016 18.2941H18.7324C19.0402 18.2941 19.2455 18.5412 19.2455 18.8235V19ZM21.7082 15.8941H9.42857C9.08652 15.8941 8.81288 15.6118 8.81288 15.2588C8.81288 14.9059 9.08652 14.6235 9.42857 14.6235H21.7082C22.0503 14.6235 22.3239 14.9059 22.3239 15.2588C22.3239 15.6118 22.0161 15.8941 21.7082 15.8941ZM21.7082 12.4353H9.42857C9.08652 12.4353 8.81288 12.1529 8.81288 11.8C8.81288 11.4471 9.08652 11.1647 9.42857 11.1647H21.7082C22.0503 11.1647 22.3239 11.4471 22.3239 11.8C22.3239 12.1529 22.0161 12.4353 21.7082 12.4353ZM21.7082 9.01176H9.42857C9.08652 9.01176 8.81288 8.72941 8.81288 8.37647C8.81288 8.02353 9.08652 7.74118 9.42857 7.74118H21.7082C22.0503 7.74118 22.3239 8.02353 22.3239 8.37647C22.3239 8.72941 22.0161 9.01176 21.7082 9.01176Z" fill="#6ADF46"/>
</svg>
