<svg width="32" height="32" viewBox="0 0 32 32" fill="none" xmlns="http://www.w3.org/2000/svg">
<path d="M25.7016 13.4671H25.4852C24.9803 13.4671 24.5475 13.1776 24.4033 12.7434C24.3311 12.5987 24.259 12.3816 24.1869 12.2368C23.9705 11.8026 24.1148 11.2961 24.4033 10.9342L24.6197 10.7895C25.0525 10.3553 25.0525 9.55921 24.6197 9.125L22.8164 7.31579C22.3836 6.88158 21.5902 6.88158 21.1574 7.31579L21.0131 7.46053C20.6525 7.82237 20.1475 7.89474 19.7148 7.75C19.5705 7.67763 19.4262 7.60526 19.2098 7.53289C18.777 7.38816 18.4885 6.88158 18.4885 6.44737V6.23026C18.4164 5.50658 17.9115 5 17.2623 5H14.6656C14.0164 5 13.4393 5.50658 13.4393 6.23026V6.375C13.4393 6.88158 13.1508 7.31579 12.6459 7.46053C12.5016 7.53289 12.3574 7.60526 12.2131 7.60526C11.7803 7.89474 11.2754 7.75 10.9148 7.46053L10.7705 7.31579C10.3377 6.88158 9.54426 6.88158 9.11147 7.31579L7.3082 9.125C6.80328 9.63158 6.80328 10.3553 7.3082 10.7895L7.38033 10.8618C7.74098 11.2237 7.81311 11.8026 7.59672 12.2368C7.52459 12.3816 7.45246 12.5263 7.38033 12.7434C7.23607 13.1776 6.73115 13.4671 6.29836 13.4671H6.22623C5.57705 13.4671 5 13.9737 5 14.6974V17.3026C5 17.9539 5.50492 18.5329 6.22623 18.5329C6.73115 18.5329 7.16393 18.8224 7.3082 19.3289C7.38033 19.5461 7.45246 19.6908 7.52459 19.9079C7.74098 20.3421 7.59672 20.8487 7.3082 21.2105C6.87541 21.6447 6.87541 22.4408 7.3082 22.875L9.11147 24.6842C9.54426 25.1184 10.3377 25.1184 10.7705 24.6842C11.1311 24.3224 11.6361 24.25 12.0689 24.4671C12.2852 24.5395 12.4295 24.6118 12.6459 24.6842C13.0787 24.8289 13.4393 25.3355 13.4393 25.7697C13.4393 26.4211 13.9443 27 14.6656 27H17.2623C17.9115 27 18.4885 26.4934 18.4885 25.7697C18.4885 25.2632 18.777 24.8289 19.282 24.6842C19.4984 24.6118 19.6426 24.5395 19.7869 24.4671C20.2197 24.25 20.7967 24.3224 21.1574 24.6842C21.5902 25.1184 22.3836 25.1184 22.8164 24.6842L24.6197 22.875C25.0525 22.4408 25.0525 21.6447 24.6197 21.2105L24.5475 21.1382C24.1869 20.7763 24.1148 20.2697 24.3311 19.8355C24.4033 19.6908 24.4754 19.5461 24.5475 19.3289C24.6918 18.8224 25.1967 18.5329 25.6295 18.5329H25.7738C26.4229 18.5329 27 18.0263 27 17.3026V14.6974C26.8557 14.0461 26.3508 13.4671 25.7016 13.4671ZM15.9639 20.7039C13.3672 20.7039 11.2033 18.6053 11.2033 15.9276C11.2033 13.25 13.2951 11.1513 15.9639 11.1513C18.6328 11.1513 20.7246 13.25 20.7246 15.9276C20.7246 18.6053 18.5607 20.7039 15.9639 20.7039Z" fill="#6ADF46"/>
</svg>
