<svg width="32" height="32" viewBox="0 0 32 32" fill="none" xmlns="http://www.w3.org/2000/svg">
<path d="M25.1084 14.9911V10.7788C25.1084 10.2478 24.9773 9.78761 24.7151 9.36283V8.61947C24.7151 7.16814 23.6335 6 22.2896 6H7.54047C6.75385 6 6.1311 6.63717 6.03278 7.45133L6 23.5221C6 24.9027 7.04883 26 8.29432 26H22.7813C24.0595 26 25.0756 24.8673 25.0756 23.5221V19.3805C25.6 19.3097 25.9933 18.8142 25.9933 18.2478V16.1593C26.0589 15.5575 25.6328 15.0619 25.1084 14.9911ZM7.67157 8.30088C7.21271 8.30088 6.8194 7.87611 6.8194 7.38053V7.27434C6.8194 6.95575 6.98328 6.70796 7.17993 6.53097C7.37659 6.42478 7.60602 6.35398 7.86823 6.35398H8.19599H22.3224C23.4696 6.35398 24.4201 7.38053 24.4201 8.61947V8.97345C23.994 8.54867 23.4368 8.30088 22.8468 8.30088H20.2575H20.2248C20.1592 8.30088 20.1264 8.33628 20.0609 8.33628H7.67157V8.30088ZM25.7311 18.2478C25.7311 18.708 25.4034 19.0619 24.9773 19.0619H21.1425C20.192 19.0619 19.4381 18.2124 19.4381 17.2212C19.4381 16.2301 20.2248 15.3805 21.1425 15.3805H24.9445C25.3706 15.3805 25.6983 15.7345 25.6983 16.1947V18.2478H25.7311Z" fill="#6ADF46"/>
<path d="M21.0441 18.0355C21.4967 18.0355 21.8635 17.6393 21.8635 17.1506C21.8635 16.6618 21.4967 16.2656 21.0441 16.2656C20.5916 16.2656 20.2247 16.6618 20.2247 17.1506C20.2247 17.6393 20.5916 18.0355 21.0441 18.0355Z" fill="#6ADF46"/>
</svg>
